# xmcd CD database file
#
# Track frame offsets:
#	150
#	17663
#	38535
#	55528
#	78255
#	94876
#	111269
#	131695
#	148015
#	162142
#	180301
#	198268
#	219209
#	238357
#	253041
#
# Disc length: 3612 seconds
#
# Revision: 4
# Processed by: cddbd v1.5.2PL0 Copyright (c) Steve Scherf et al.
# Submitted via: CDex 1.51
#
DISCID=c10e1a0f
DTITLE=Various Artist - SF-Pick&Mix-4
DYEAR=1900
DGENRE=Blues
TTITLE0=Glee Cast - Thriller/Heads will Roll
TTITLE1=Lady Gaga - Born This way (country version)
TTITLE2=Holly Valance - Kiss Kiss
TTITLE3=Rolling Stones The - Angie
TTITLE4=Freddie Mercury - The Great Pretender
TTITLE5=Tony Bennett and Lady Gaga - The Lady Is A Tramp
TTITLE6=Neil Diamond - America
TTITLE7=Tony Bennett and Amy Winehouse - Body And Soul
TTITLE8=Loius Armstrong - When The Saints Go Marching In
TTITLE9=Boystown Gang - Cant Take My Eyes Off You
TTITLE10=Apache Indian - Boom Shak-A-Lak
TTITLE11=Garth Brooks - Friends In Low Places
TTITLE12=Cher - Walking In Memphis
TTITLE13=J Buffett/C Black/K Chesney/A Jackson/T Kieth/G Strait - Hey. Good Looking
TTITLE14=Glee Cast - You Can't Stop The Beat
EXTD=
EXTT0=
EXTT1=
EXTT2=
EXTT3=
EXTT4=
EXTT5=
EXTT6=
EXTT7=
EXTT8=
EXTT9=
EXTT10=
EXTT11=
EXTT12=
EXTT13=
EXTT14=
PLAYORDER=
